<svg width="20" height="20" viewBox="0 0 20 20" fill="none" xmlns="http://www.w3.org/2000/svg">
<circle cx="10" cy="10" r="9.5" fill="#FF9100" stroke="#FFB842"/>
<path d="M12.2578 6.27273V8.54545H6.50781V6.27273H12.2578ZM7.62145 4.18182H10.7578V12.1932C10.7578 12.3144 10.7786 12.4167 10.8203 12.5C10.862 12.5795 10.9264 12.6402 11.0135 12.6818C11.1006 12.7197 11.2124 12.7386 11.3487 12.7386C11.4434 12.7386 11.5533 12.7273 11.6783 12.7045C11.8071 12.6818 11.9018 12.6629 11.9624 12.6477L12.4169 14.8523C12.2768 14.8939 12.076 14.9451 11.8146 15.0057C11.5571 15.0663 11.2502 15.1061 10.8942 15.125C10.1745 15.1629 9.57031 15.089 9.08168 14.9034C8.59304 14.714 8.22562 14.4167 7.9794 14.0114C7.73319 13.6061 7.61387 13.0985 7.62145 12.4886V4.18182Z" fill="#FFB842"/>
</svg>
