<svg width="20" height="20" viewBox="0 0 20 20" fill="none" xmlns="http://www.w3.org/2000/svg">
<g clip-path="url(#clip0_13_1047)">
<rect width="20" height="20" rx="10" fill="#97F000"/>
<path d="M15.7126 19.6452H3.42383L6.96984 13.7466H11.7386L15.7126 19.6452Z" fill="#96E600"/>
<path d="M13.1783 -0.999943L20.8893 8.56853L14.0713 9.50872L11.079 5.79558L13.1783 -0.999943Z" fill="#84CF00"/>
<path d="M1.21189 2.10414L13.1636 -0.754279L11.0869 5.80736L6.44891 6.9166L1.21189 2.10414Z" fill="#4F9D00"/>
<path d="M-0.999839 14.2412L1.43027 2.19512L6.51118 6.83756L5.56815 11.5122L-0.999839 14.2412Z" fill="#0C6800"/>
<path d="M3.61526 19.138L-0.548609 14.0273L5.51597 11.5399L7.1318 13.5232L3.61526 19.138Z" fill="#015C00"/>
<path d="M21.0057 8.47467L15.6038 19.5125L11.8644 13.7345L13.9607 9.45119L21.0057 8.47467Z" fill="#71B400"/>
</g>
<rect x="0.5" y="0.5" width="19" height="19" rx="9.5" stroke="black"/>
<defs>
<clipPath id="clip0_13_1047">
<rect width="20" height="20" rx="10" fill="white"/>
</clipPath>
</defs>
</svg>
